# xmcd
#
# Track frame offsets:
#	150
#	13458
#	24150
#	40543
#	49475
#	60998
#	79893
#	99988
#	111825
#	132022
#	152700
#	166147
#	184598
#	210849
#	232850
#	250386
#	275559
#	288640
#
# Disc length: 4268
#
# Revision: 1
# Processed by: cddbd v1.5.1PL0 Copyright (c) Steve Scherf et al.
# Submitted via: CDex 1.50
# Normalized: r0:TRMNUM
#
DISCID=e810aa12
DTITLE=Various Artist - VIVA JAZZANOVA
DYEAR=2003
DGENRE=Jazz
TTITLE0=SARAH VAUGHAN FEATANTONIO CARLOS JOBIM /TRISTE
TTITLE1=CHARLIE BYRD/UM ABRACA DO BONFA/(A SALUTE TO BONFA)
TTITLE2=ELLA FITZGERALD/SONG OF THE JET(SAMBA DO AVIAO)
TTITLE3=CHICO OFARRILL/SIN TU ANOR(FOR GRACIELA)
TTITLE4=GARY MCFARLAND WITH ANTONIO CARLOS JOBIM/DREAMER
TTITLE5=JAIME &NAIR/SOB O MAR
TTITLE6=WANDA SA/ IT`S TOO LATE
TTITLE7=BOLA SETE/INFLUENICIA DO JAZZ
TTITLE8=SPANISH CONNECTION/MELANCOLIA DE LA EUROPE
TTITLE9=TONINHO HARTA/MEDITACAO
TTITLE10=VALERIA OLIVEIRA/DE ONDE E QUE VEM O BAIAO
TTITLE11=DOM UM ROMAO/ESCRAVOS DE JO
TTITLE12=ARTURO O`FARRILL TRIO/BLACK ORPHEUS
TTITLE13=CAMILA BENSON/AQUA DE BEBER (WATER TO DRINK)
TTITLE14=ANA MAZZOTTI/FEEL LIKE MAKING LOVE
TTITLE15=ANN SALLY/EMOLDURADA
TTITLE16=RONIE &CENTRAL DO BRASIL
TTITLE17=TRIO MONTMARTRE/BESAME MUCHO
EXTD=YEAR: 2003
EXTT0=
EXTT1=
EXTT2=
EXTT3=
EXTT4=
EXTT5=
EXTT6=
EXTT7=
EXTT8=
EXTT9=
EXTT10=
EXTT11=
EXTT12=
EXTT13=
EXTT14=
EXTT15=
EXTT16=
EXTT17=
PLAYORDER=
